<?xml version="1.0" encoding="utf-8"?>
<!-- Generator: Adobe Illustrator 24.1.2, SVG Export Plug-In . SVG Version: 6.00 Build 0)  -->
<svg version="1.1" id="o" xmlns="http://www.w3.org/2000/svg" xmlns:xlink="http://www.w3.org/1999/xlink" x="0px" y="0px"
	 width="1326px" height="1326px" viewBox="0 0 1326 1326" style="enable-background:new 0 0 1326 1326;" xml:space="preserve">
<style type="text/css">
	.st0{fill:#0077FF;}
	.st1{fill:#0055BB;}
</style>
<path id="o_5_" class="st0" d="M902.45,344.24L902.45,344.24c-1.39-1.04-2.79-2.08-4.19-3.1c39.98-25.69,62.26-58.8,74.42-84.68
	c11.24-23.9,13.87-41.63,13.87-41.63s-29.8,27.37-85.56,41.63c-41.28,10.56-73.51,8.05-80.37,8.43H664c-2.82,0-5.63,0.05-8.43,0.11
	c-215.9,4.49-389.54,180.88-389.54,397.86c0,219.79,178.18,397.97,397.97,397.97c219.79,0,397.97-178.18,397.97-397.97
	C1061.97,533.54,999.45,416.34,902.45,344.24z M667.23,939.36c-151.88,0-275-122.81-275-274.3c0-147.59,116.87-267.93,263.34-274.03
	c3.71-0.15,7.43-0.25,11.18-0.26c0,0,0.12,0,0.48,0c0.35,0,0.71,0,1.06,0.01c151.24,0.54,273.93,123.1,273.93,274.28
	C942.22,816.55,819.1,939.36,667.23,939.36z"/>
<path class="st1" d="M898.26,341.14c-44.63,28.7-136.23,53.39-217.54,49.97c0.2,0.01,9.22,0.6,10.28,0.7
	c1.1,0.09,5.36,0.5,6.39,0.62c1.13,0.12,5.37,0.63,6.36,0.76c1.4,0.19,7.59,1.12,9.28,1.4c0.89,0.15,5.18,0.91,6.43,1.15
	c0.74,0.14,7.37,1.52,7.91,1.64c1.53,0.34,4.84,1.12,4.97,1.15c12.86,3.12,25.39,7.12,37.47,11.97
	c48.37,0.5,117.63-10.25,174.25-30.5c-13.01-12.88-26.92-24.84-41.62-35.76v-0.01C901.06,343.2,899.66,342.16,898.26,341.14
	C898.26,341.14,898.26,341.14,898.26,341.14C898.26,341.14,898.26,341.14,898.26,341.14z"/>
</svg>
