<svg xmlns="http://www.w3.org/2000/svg" viewBox="0 0 889 155.23"><defs><style>.cls-1{fill:#07f;}.cls-2{fill:#05b;}.cls-3{fill:#00104b;}</style></defs><title>Element 2</title><g id="Ebene_2" data-name="Ebene 2"><g id="ottonova"><g id="o"><path class="cls-1" d="M634.69,50.21h0a63,63,0,0,0-7.91-7.41C637.35,33,639,19.26,639,19.26a36.07,36.07,0,0,1-24.86,10.22c-12.18,0-21.5-.09-24.87-.13h-1.37a62.88,62.88,0,1,0,46.81,20.87ZM587.88,130.1a37.94,37.94,0,1,1,0-75.87h0c1.15,0,2.3.06,3.43.16l.72.08.55.05a37.52,37.52,0,0,1,11.66,3.41h0a37.93,37.93,0,0,1-16.37,72.17Z"/><path class="cls-2" d="M634.69,50.2h0a81.58,81.58,0,0,1-30.44,7.72h0a37.52,37.52,0,0,0-11.66-3.41c10.22.76,25.69-3.87,34.2-11.73A63,63,0,0,1,634.69,50.2Z"/></g><path class="cls-3" d="M257.86,128l5.45,23.6s-3.68,3.67-19.64,3.67c-20.95,0-33.92-13.22-33.92-40.4V55.22H168.8v56.86c0,12.47,3.74,17,11.72,17A33.65,33.65,0,0,0,189,128l5.45,23.6s-3.68,3.67-19.65,3.67c-20.95,0-33.92-13.22-33.92-40.4V55.22h-15V31.52h15V9L168.8,0V31.52h40.95V9l27.93-9V31.52h24.05v23.7H237.68v56.86c0,12.47,3.74,17,11.73,17A33.51,33.51,0,0,0,257.86,128ZM63,29.1a63,63,0,1,0,63,63A62.95,62.95,0,0,0,63,29.1Zm0,99.77A36.82,36.82,0,1,1,99.77,92.05,36.82,36.82,0,0,1,63,128.87Zm799.92-98V41a63,63,0,1,0,0,102.09v9.51H889V30.86Zm-36.82,98a36.82,36.82,0,1,1,36.82-36.82A36.82,36.82,0,0,1,826.05,128.87Zm-86.66-97.4L708,118.27h-.25l-31.93-86.8H646.11L694.5,153.19h26.69L769.32,31.47Zm-274.52,0c-15.71,0-27.15,2.94-36.5,10.11V31.44H400.26V153.15h27.93V93.83c0-24,10.72-37.16,29.68-37.16,16.71,0,28.19,8.23,28.19,33.92v62.56H514V83.35C514,49.15,491.56,31.47,464.87,31.47ZM326.62,29.1a63,63,0,1,0,62.95,63A62.95,62.95,0,0,0,326.62,29.1Zm0,99.77a36.82,36.82,0,1,1,36.82-36.82A36.82,36.82,0,0,1,326.62,128.87Z"/></g></g></svg>